# xmcd CD database file
#
# Track frame offsets:
#	182
#	11245
#	27370
#	39670
#	52120
#	62770
#	73345
#	86320
#	96220
#	105745
#	116695
#	128095
#	138970
#	155170
#	166795
#	179395
#	192220
#	206695
#	220795
#	231970
#	243145
#	254470
#	264670
#	278620
#	290770
#
# Disc length: 3996 seconds
#
# Revision: 0
# Processed by: cddbd v1.5.1PL0 Copyright (c) Steve Scherf et al.
# Submitted via: CDex 1.51
#
DISCID=770f9a19
DTITLE=Various Artist - A Ton of Country #3
DYEAR=1900
DGENRE=Country
TTITLE0=Buck Owens - My Heart Skips A Beat
TTITLE1=Ernest Tubb - I Love You Because (Live)
TTITLE2=Lynn Anderson - Stand By Your Man
TTITLE3=George Jones - If My Heart Had Windows
TTITLE4=Patsy Cline - I Don't Wanta
TTITLE5=Buck Owens - Slowly But Surely
TTITLE6=Faron Young - Love Me Tender
TTITLE7=David Houston - You Mean The World To Me
TTITLE8=Anne Murray - Some Birds
TTITLE9=Ferlin Husky - A Fallen Star
TTITLE10=Webb Pierce - Slowly
TTITLE11=Jim Reeves - Then I'll Stop Loving You
TTITLE12=Norma Jean - Old Flames Can't Hold A Candle To You
TTITLE13=Tommy Overstreet - Heaven is My Woman's Love
TTITLE14=Alabama - I Go on Loving You
TTITLE15=Billy Jo Spears - Dallas
TTITLE16=Freddy Fender - Since I Met You Baby
TTITLE17=Charlie Rich - On My Knees
TTITLE18=Bobby Bare - Please Don't Tell Me How The Story Ends
TTITLE19=Dolly Parton - What Do You Think About Loving
TTITLE20=Merle Travis - Sweet Temptation
TTITLE21=Leroy Van Dyke - If A Woman Answers (Hang Up The Phone)
TTITLE22=Tommy Overstreet - Dream Maker
TTITLE23=George Jones - Take Me
TTITLE24=Webb Pierce - I Ain't Never
EXTD=
EXTT0=
EXTT1=
EXTT2=
EXTT3=
EXTT4=
EXTT5=
EXTT6=
EXTT7=
EXTT8=
EXTT9=
EXTT10=
EXTT11=
EXTT12=
EXTT13=
EXTT14=
EXTT15=
EXTT16=
EXTT17=
EXTT18=
EXTT19=
EXTT20=
EXTT21=
EXTT22=
EXTT23=
EXTT24=
PLAYORDER=
